<?xml version="1.0" encoding="utf-8"?><svg xmlns="http://www.w3.org/2000/svg" xmlns:xlink="http://www.w3.org/1999/xlink"><symbol viewBox="0 0 12 8" id="arrow-down" xmlns="http://www.w3.org/2000/svg"><path d="M1.41 0.296875L6 4.87687L10.59 0.296875L12 1.70687L6 7.70687L0 1.70687L1.41 0.296875Z"/></symbol><symbol viewBox="0 0 16 20" id="bag" xmlns="http://www.w3.org/2000/svg"><path d="M14 4H12C12 1.79 10.21 0 8 0C5.79 0 4 1.79 4 4H2C0.9 4 0 4.9 0 6V18C0 19.1 0.9 20 2 20H14C15.1 20 16 19.1 16 18V6C16 4.9 15.1 4 14 4ZM8 2C9.1 2 10 2.9 10 4H6C6 2.9 6.9 2 8 2ZM14 18H2V6H4V8C4 8.55 4.45 9 5 9C5.55 9 6 8.55 6 8V6H10V8C10 8.55 10.45 9 11 9C11.55 9 12 8.55 12 8V6H14V18Z"/></symbol><symbol viewBox="0 0 25 24" id="close" xmlns="http://www.w3.org/2000/svg"><path d="M19.5 6.41L18.09 5L12.5 10.59L6.91 5L5.5 6.41L11.09 12L5.5 17.59L6.91 19L12.5 13.41L18.09 19L19.5 17.59L13.91 12L19.5 6.41Z"/></symbol><symbol viewBox="0 0 20 20" id="favorite" xmlns="http://www.w3.org/2000/svg"><path d="M9.22318 17.1147L9.22174 17.1134C6.62662 14.7602 4.55384 12.878 3.1178 11.1223C1.69324 9.38069 1 7.88574 1 6.32422C1 3.7965 2.97228 1.82422 5.5 1.82422C6.93721 1.82422 8.33224 2.49815 9.23865 3.56256L10 4.45662L10.7614 3.56256C11.6678 2.49815 13.0628 1.82422 14.5 1.82422C17.0277 1.82422 19 3.7965 19 6.32422C19 7.88575 18.3068 9.38075 16.882 11.1239C15.4459 12.8808 13.3734 14.7651 10.7786 17.1232C10.7782 17.1235 10.7778 17.1238 10.7775 17.1241L10.0026 17.8242L9.22318 17.1147Z" stroke-width="2"/></symbol><symbol viewBox="0 0 25 24" id="menu" xmlns="http://www.w3.org/2000/svg"><path d="M3.5 18H21.5V16H3.5V18ZM3.5 13H21.5V11H3.5V13ZM3.5 6V8H21.5V6H3.5Z"/></symbol><symbol viewBox="0 0 16 18" id="person" xmlns="http://www.w3.org/2000/svg"><path d="M14.39 12.06C12.71 11.2 10.53 10.5 8 10.5C5.47 10.5 3.29 11.2 1.61 12.06C0.61 12.57 0 13.6 0 14.72V17.5H16V14.72C16 13.6 15.39 12.57 14.39 12.06ZM14 15.5H2V14.72C2 14.34 2.2 14 2.52 13.84C3.71 13.23 5.63 12.5 8 12.5C10.37 12.5 12.29 13.23 13.48 13.84C13.8 14 14 14.34 14 14.72V15.5Z"/><path d="M8 9.5C10.21 9.5 12 7.71 12 5.5C12 4.13 12 2 12 2C12 1.17 11.33 0.5 10.5 0.5C9.98 0.5 9.52 0.77 9.25 1.17C8.98 0.77 8.52 0.5 8 0.5C7.48 0.5 7.02 0.77 6.75 1.17C6.48 0.77 6.02 0.5 5.5 0.5C4.67 0.5 4 1.17 4 2C4 2 4 4.12 4 5.5C4 7.71 5.79 9.5 8 9.5ZM6 3H10V5.5C10 6.6 9.1 7.5 8 7.5C6.9 7.5 6 6.6 6 5.5V3Z"/></symbol><symbol viewBox="0 0 25 24" id="search" xmlns="http://www.w3.org/2000/svg"><path d="M16.2549 14.2539H15.4649L15.1849 13.9839C16.1649 12.8439 16.7549 11.3639 16.7549 9.75391C16.7549 6.16391 13.8449 3.25391 10.2549 3.25391C6.66488 3.25391 3.75488 6.16391 3.75488 9.75391C3.75488 13.3439 6.66488 16.2539 10.2549 16.2539C11.8649 16.2539 13.3449 15.6639 14.4849 14.6839L14.7549 14.9639V15.7539L19.7549 20.7439L21.2449 19.2539L16.2549 14.2539ZM10.2549 14.2539C7.76488 14.2539 5.75488 12.2439 5.75488 9.75391C5.75488 7.26391 7.76488 5.25391 10.2549 5.25391C12.7449 5.25391 14.7549 7.26391 14.7549 9.75391C14.7549 12.2439 12.7449 14.2539 10.2549 14.2539Z"/></symbol></svg>