<svg width="16" height="18" viewBox="0 0 16 18" fill="none" xmlns="http://www.w3.org/2000/svg">
<path d="M14.39 12.06C12.71 11.2 10.53 10.5 8 10.5C5.47 10.5 3.29 11.2 1.61 12.06C0.61 12.57 0 13.6 0 14.72V17.5H16V14.72C16 13.6 15.39 12.57 14.39 12.06ZM14 15.5H2V14.72C2 14.34 2.2 14 2.52 13.84C3.71 13.23 5.63 12.5 8 12.5C10.37 12.5 12.29 13.23 13.48 13.84C13.8 14 14 14.34 14 14.72V15.5Z" fill="#202020"/>
<path d="M8 9.5C10.21 9.5 12 7.71 12 5.5C12 4.13 12 2 12 2C12 1.17 11.33 0.5 10.5 0.5C9.98 0.5 9.52 0.77 9.25 1.17C8.98 0.77 8.52 0.5 8 0.5C7.48 0.5 7.02 0.77 6.75 1.17C6.48 0.77 6.02 0.5 5.5 0.5C4.67 0.5 4 1.17 4 2C4 2 4 4.12 4 5.5C4 7.71 5.79 9.5 8 9.5ZM6 3H10V5.5C10 6.6 9.1 7.5 8 7.5C6.9 7.5 6 6.6 6 5.5V3Z" fill="#202020"/>
</svg>
