<svg width="25" height="24" viewBox="0 0 25 24" fill="none" xmlns="http://www.w3.org/2000/svg">
<path d="M16.2549 14.2539H15.4649L15.1849 13.9839C16.1649 12.8439 16.7549 11.3639 16.7549 9.75391C16.7549 6.16391 13.8449 3.25391 10.2549 3.25391C6.66488 3.25391 3.75488 6.16391 3.75488 9.75391C3.75488 13.3439 6.66488 16.2539 10.2549 16.2539C11.8649 16.2539 13.3449 15.6639 14.4849 14.6839L14.7549 14.9639V15.7539L19.7549 20.7439L21.2449 19.2539L16.2549 14.2539ZM10.2549 14.2539C7.76488 14.2539 5.75488 12.2439 5.75488 9.75391C5.75488 7.26391 7.76488 5.25391 10.2549 5.25391C12.7449 5.25391 14.7549 7.26391 14.7549 9.75391C14.7549 12.2439 12.7449 14.2539 10.2549 14.2539Z" fill="#0C0C0C"/>
</svg>
