<?xml version="1.0" encoding="utf-8"?><svg viewBox="0 0 25 24" xmlns="http://www.w3.org/2000/svg" xmlns:xlink="http://www.w3.org/1999/xlink"><style>:root>svg{display:none}:root>svg:target{display:block}</style><svg fill="none" viewBox="0 0 12 8" id="arrow-down" xmlns="http://www.w3.org/2000/svg"><path d="M1.41.297 6 4.877l4.59-4.58L12 1.707l-6 6-6-6L1.41.297Z" fill="#0C0C0C"/></svg><svg fill="none" viewBox="0 0 16 20" id="bag" xmlns="http://www.w3.org/2000/svg"><path d="M14 4h-2c0-2.21-1.79-4-4-4S4 1.79 4 4H2C.9 4 0 4.9 0 6v12c0 1.1.9 2 2 2h12c1.1 0 2-.9 2-2V6c0-1.1-.9-2-2-2ZM8 2c1.1 0 2 .9 2 2H6c0-1.1.9-2 2-2Zm6 16H2V6h2v2c0 .55.45 1 1 1s1-.45 1-1V6h4v2c0 .55.45 1 1 1s1-.45 1-1V6h2v12Z" fill="#202020"/></svg><svg fill="none" viewBox="0 0 25 24" id="close" xmlns="http://www.w3.org/2000/svg"><path d="M19.5 6.41 18.09 5l-5.59 5.59L6.91 5 5.5 6.41 11.09 12 5.5 17.59 6.91 19l5.59-5.59L18.09 19l1.41-1.41L13.91 12l5.59-5.59Z" fill="#0C0C0C"/></svg><svg fill="none" viewBox="0 0 20 20" id="favorite" xmlns="http://www.w3.org/2000/svg"><path d="m9.223 17.115-.001-.002c-2.595-2.353-4.668-4.235-6.104-5.99C1.693 9.38 1 7.885 1 6.323c0-2.527 1.972-4.5 4.5-4.5 1.437 0 2.832.674 3.739 1.739l.761.894.761-.894c.907-1.065 2.302-1.739 3.739-1.739 2.528 0 4.5 1.972 4.5 4.5 0 1.562-.693 3.057-2.118 4.8-1.436 1.757-3.509 3.641-6.103 6h-.002l-.774.7-.78-.71Z" fill="#fff" stroke="#202020" stroke-width="2"/></svg><svg fill="none" viewBox="0 0 25 24" id="menu" xmlns="http://www.w3.org/2000/svg"><path d="M3.5 18h18v-2h-18v2Zm0-5h18v-2h-18v2Zm0-7v2h18V6h-18Z" fill="#0C0C0C"/></svg><svg fill="none" viewBox="0 0 16 18" id="person" xmlns="http://www.w3.org/2000/svg"><path d="M14.39 12.06C12.71 11.2 10.53 10.5 8 10.5s-4.71.7-6.39 1.56A2.97 2.97 0 0 0 0 14.72v2.78h16v-2.78c0-1.12-.61-2.15-1.61-2.66ZM14 15.5H2v-.78c0-.38.2-.72.52-.88C3.71 13.23 5.63 12.5 8 12.5c2.37 0 4.29.73 5.48 1.34.32.16.52.5.52.88v.78ZM8 9.5c2.21 0 4-1.79 4-4V2c0-.83-.67-1.5-1.5-1.5-.52 0-.98.27-1.25.67C8.98.77 8.52.5 8 .5s-.98.27-1.25.67C6.48.77 6.02.5 5.5.5 4.67.5 4 1.17 4 2v3.5c0 2.21 1.79 4 4 4ZM6 3h4v2.5c0 1.1-.9 2-2 2s-2-.9-2-2V3Z" fill="#202020"/></svg><svg fill="none" viewBox="0 0 25 24" id="search" xmlns="http://www.w3.org/2000/svg"><path d="M16.255 14.254h-.79l-.28-.27a6.471 6.471 0 0 0 1.57-4.23 6.5 6.5 0 1 0-6.5 6.5c1.61 0 3.09-.59 4.23-1.57l.27.28v.79l5 4.99 1.49-1.49-4.99-5Zm-6 0c-2.49 0-4.5-2.01-4.5-4.5s2.01-4.5 4.5-4.5 4.5 2.01 4.5 4.5-2.01 4.5-4.5 4.5Z" fill="#0C0C0C"/></svg></svg>